<?xml version="1.0" encoding="UTF-8"?>
<svg version="1.1" viewBox="0 0 1600 576" width="1280" height="1280" xmlns="http://www.w3.org/2000/svg">
<path transform="translate(61,160)" d="m0 0c17.7-0.0934 35.3-0.164 53-0.207 8.2-0.0206 16.4-0.0488 24.6-0.0945 7.15-0.0398 14.3-0.0657 21.4-0.0746 3.79-0.00522 7.57-0.0175 11.4-0.0466 3.56-0.0271 7.12-0.0355 10.7-0.0295 1.93-0.00163 3.86-0.0232 5.79-0.0452 1.72 0.00825 1.72 0.00825 3.48 0.0167 1.5-0.00553 1.5-0.00553 3.03-0.0112 3.34 0.628 4.54 1.86 6.62 4.49v2c0.557 0.233 1.11 0.465 1.69 0.705 2.91 1.63 4.93 3.66 7.3 6.01 0.935 0.932 1.87 1.86 2.83 2.82 0.721 0.728 0.721 0.728 1.46 1.47 1.48 1.49 2.97 2.97 4.46 4.44 0.929 0.932 1.86 1.86 2.82 2.82 0.854 0.857 1.71 1.71 2.59 2.6 1.86 2.12 1.86 2.12 1.86 4.12 0.99 0.33 1.98 0.66 3 1-0.33 0.99-0.66 1.98-1 3h2c0.306 7.75 0.515 15.5 0.659 23.3 0.0601 2.63 0.142 5.27 0.246 7.9 0.938 24.3 0.938 24.3-5.25 31.1-2.43 2.2-4.87 4.02-7.65 5.75 1.35 4.04 4.08 6.29 7.06 9.19 0.568 0.559 1.14 1.12 1.72 1.69 1.4 1.38 2.81 2.75 4.22 4.12-0.33 0.66-0.66 1.32-1 2 0 1.78 0.053 3.56 0.0918 5.34 0.03 1.38 0.03 1.38 0.0607 2.79 0.0328 1.5 0.0328 1.5 0.0663 3.03 0.0222 1.02 0.0444 2.04 0.0673 3.09 0.0712 3.27 0.143 6.54 0.214 9.81 0.0482 2.21 0.0964 4.42 0.145 6.63 0.118 5.43 0.237 10.9 0.355 16.3 4.29 0.33 8.58 0.66 13 1-0.33 16.2-0.66 32.3-1 49-17.6 0.12-17.6 0.12-25.1 0.146-5.12 0.018-10.2 0.0392-15.4 0.0798-4.13 0.0325-8.26 0.0505-12.4 0.0583-1.58 0.00556-3.16 0.0164-4.73 0.0326-2.21 0.0217-4.41 0.0248-6.62 0.0234-1.89 0.00999-1.89 0.00999-3.81 0.0202-0.969-0.119-1.94-0.238-2.94-0.361-2.44-3.66-2.24-6.3-2.15-10.5 0.00774-0.763 0.0155-1.53 0.0235-2.31 0.0177-1.66 0.0397-3.31 0.0656-4.97 0.0394-2.62 0.0638-5.25 0.0836-7.87 0.0581-7.46 0.135-14.9 0.242-22.4 0.0645-4.56 0.105-9.12 0.129-13.7 0.0143-1.74 0.0379-3.48 0.071-5.21 0.0458-2.43 0.0605-4.86 0.0684-7.3 0.0211-0.716 0.0422-1.43 0.064-2.17-0.023-3.85-0.505-5.48-2.92-8.55-3.47-2.66-5.6-2.71-9.95-2.76-1.02-0.0227-1.02-0.0227-2.06-0.0458-2.16-0.0427-4.32-0.0517-6.48-0.0596-1.47-0.0232-2.94-0.0485-4.41-0.0762-3.59-0.0627-7.18-0.0952-10.8-0.111-1.05 19-1.05 19 0 38 4.29 0.33 8.58 0.66 13 1-0.33 16.2-0.66 32.3-1 49h-85c-0.91-2.73-1.13-4.32-1.13-7.13-0.00315-0.828-0.0063-1.66-0.00955-2.51 0.00202-0.891 0.00405-1.78 0.00613-2.7-9.57e-4 -0.919-0.00191-1.84-0.0029-2.78-6.8e-4 -1.94 0.00116-3.89 0.00534-5.83 0.00534-2.97 5.37e-5 -5.94-0.00635-8.91 6.61e-4 -1.89 0.00194-3.77 0.00391-5.66-0.00202-0.889-0.00405-1.78-0.00613-2.69 0.00315-0.831 0.0063-1.66 0.00955-2.52 7.96e-4 -0.728 0.00159-1.46 0.00241-2.21 0.127-2.06 0.127-2.06 1.13-6.06h13v-119c-4.29-0.33-8.58-0.66-13-1-1.15-2.29-1.13-3.58-1.13-6.13-0.00315-0.851-0.0063-1.7-0.00955-2.58 0.00202-0.921 0.00405-1.84 0.00613-2.79-9.57e-4 -0.944-0.00191-1.89-0.0029-2.86-6.81e-4 -2 0.00117-4 0.00534-6 0.00534-3.06 5.62e-5 -6.13-0.00635-9.19 6.61e-4 -1.94 0.00194-3.88 0.00391-5.82-0.00202-0.919-0.00405-1.84-0.00613-2.78 0.00315-0.854 0.0063-1.71 0.00955-2.59 7.96e-4 -0.751 0.00159-1.5 0.00241-2.28 0.127-1.98 0.127-1.98 1.13-4.98zm73 48c-1.11 3.33-1.13 5.84-1.13 9.35-0.00129 1.24-0.00258 2.49-0.00391 3.77 0.00387 1.3 0.00773 2.6 0.0117 3.94-0.00387 1.31-0.00773 2.61-0.0117 3.96 0.00129 1.24 0.00258 2.49 0.00391 3.77 0.00113 1.14 0.00226 2.29 0.00342 3.47-0.0583 2.71-0.0583 2.71 1.13 4.75 4.16 0.149 8.32 0.258 12.5 0.33 1.41 0.0301 2.83 0.0709 4.24 0.123 9.14 0.686 9.14 0.686 17.2-2.85 3.06-4.08 3.19-8.66 3.3-13.6 0.0625-0.877 0.125-1.75 0.189-2.66 0.176-4.42 0.0851-7.39-2.76-10.9-3.98-3.72-5.99-3.56-11.4-3.54-0.663 0.00141-1.33 0.00283-2.01 0.00429-2.12 0.0056-4.24 0.0182-6.36 0.0309-1.44 0.00501-2.87 0.00958-4.31 0.0137-3.52 0.011-7.04 0.0283-10.6 0.0488zm108 123 1 3z" fill="#F9FAFC"/>
<path transform="translate(568,203)" d="m0 0h67v39c-0.638 0.049-1.28 0.098-1.93 0.148-0.826 0.0748-1.65 0.15-2.5 0.227-0.824 0.0696-1.65 0.139-2.5 0.211-1.02 0.205-1.02 0.205-2.07 0.414-1.2 2.4-1.11 3.89-1.1 6.57 0.00322 0.896 0.00645 1.79 0.00977 2.71 0.00838 0.937 0.0168 1.87 0.0254 2.84 0.00451 0.945 0.00902 1.89 0.0137 2.86 0.0118 2.34 0.0283 4.67 0.0488 7.01 3.44-1.62 5.61-3.43 8.25-6.19 3.54-3.62 7.18-7.01 11-10.3 2.01-1.75 3.89-3.59 5.73-5.51-1.49-0.495-1.49-0.495-3-1-1.18-3.53-1.14-6.73-1.13-10.4-9.57e-4 -0.721-0.00191-1.44-0.0029-2.19-6.8e-4 -1.52 0.00116-3.05 0.00534-4.57 0.00535-2.33 4.84e-5 -4.66-0.00635-6.99 6.61e-4 -1.48 0.00194-2.96 0.00391-4.44-0.00202-0.697-0.00405-1.39-0.00613-2.11 0.0147-3.04 0.168-5.38 1.14-8.29h82c-0.33 8.58-0.66 17.2-1 26v13c-2.08-0.0371-4.16-0.0743-6.3-0.113-8.86 0.656-13.1 4.69-18.9 10.9-0.989 1-1.98 2-2.97 2.99-2.06 2.08-4.1 4.17-6.12 6.29-2.59 2.71-5.22 5.38-7.87 8.04-2.04 2.05-4.07 4.12-6.09 6.19-0.967 0.99-1.94 1.98-2.91 2.96-1.35 1.37-2.68 2.76-4.01 4.16-1.14 1.18-1.14 1.18-2.3 2.39-1.68 2.02-1.68 2.02-1.48 4.18 1.31 2.64 2.97 4.44 5.01 6.57 0.856 0.897 1.71 1.79 2.59 2.72 0.944 0.971 1.89 1.94 2.83 2.91 0.717 0.737 0.717 0.737 1.45 1.49 2.54 2.6 5.08 5.2 7.63 7.78 2.62 2.66 5.2 5.35 7.77 8.05 2 2.09 4.03 4.14 6.06 6.19 0.963 0.979 1.91 1.97 2.85 2.97 1.33 1.41 2.7 2.77 4.08 4.14 0.765 0.785 1.53 1.57 2.32 2.38 4.81 2.86 4.81 2.86 17.4 2.8-0.33 12.9-0.66 25.7-1 39h-81c-1.27-3.82-1.12-7.41-1.1-11.4 0.00141-0.817 0.00283-1.63 0.00429-2.48 0.0056-2.61 0.0181-5.22 0.0309-7.82 0.00502-1.77 0.00958-3.54 0.0137-5.31 0.011-4.34 0.0283-8.67 0.0488-13h4c-2.2-2.38-4.44-4.72-6.69-7.06-0.626-0.676-1.25-1.35-1.9-2.05-3.45-3.84-3.45-3.84-8.21-4.95-3.81 1.83-6.51 4.11-7.97 8.17-0.49 1.95-0.874 3.92-1.24 5.89 3.96 0.33 7.92 0.66 12 1-0.33 1.32-0.66 2.64-1 4-0.0833 2.69-0.116 5.36-0.0977 8.05 0.00101 0.684 0.00201 1.37 0.00305 2.07 0.00521 2.54 0.0192 5.09 0.0321 7.63 0.0206 5.69 0.0412 11.4 0.0625 17.2h-67c-1.18-3.55-1.13-6.4-1.13-10.2-9.57e-4 -0.697-0.00191-1.39-0.0029-2.11-6.8e-4 -1.47 0.00116-2.94 0.00534-4.42 0.00534-2.25 5.26e-5 -4.49-0.00635-6.74 6.61e-4 -1.43 0.00194-2.86 0.00391-4.29 0.00113-1.3 0.00226-2.6 0.00342-3.94 0.129-3.34 0.129-3.34 1.13-7.34h9c-0.00222-1.17-0.00444-2.35-0.00673-3.56-0.0202-11-0.0352-22.1-0.0451-33.1-0.00523-5.67-0.0123-11.3-0.0236-17-0.0108-5.47-0.0168-10.9-0.0194-16.4-0.00185-2.09-0.00547-4.18-0.0109-6.27-0.00722-2.92-0.00826-5.84-0.0078-8.76-0.0036-0.872-0.00719-1.74-0.0109-2.64 0.0104-5.99 0.0104-5.99 1.12-8.21h-10c-1.18-3.53-1.14-6.73-1.13-10.4-9.57e-4 -0.721-0.00191-1.44-0.0029-2.19-6.8e-4 -1.52 0.00116-3.05 0.00534-4.57 0.00535-2.33 4.84e-5 -4.66-0.00635-6.99 6.61e-4 -1.48 0.00194-2.96 0.00391-4.44-0.00202-0.697-0.00405-1.39-0.00613-2.11 0.0147-3.04 0.168-5.38 1.14-8.29z" fill="#F9FAFC"/>
<path transform="translate(891,160)" d="m0 0h184c-0.33 20.1-0.66 40.3-1 61h-48c-1.18-2.37-1.13-3.87-1.12-6.5-0.00258-0.794-0.00516-1.59-0.00781-2.41 0.133-2.09 0.133-2.09 1.13-4.09h-13c-1.83 39.6-1.38 79.4 0 119 4.29 0.33 8.58 0.66 13 1-0.33 16.2-0.66 32.3-1 49h-85c-0.91-2.73-1.13-4.32-1.13-7.13-0.00315-0.828-0.0063-1.66-0.00955-2.51 0.00202-0.891 0.00405-1.78 0.00613-2.7-9.57e-4 -0.919-0.00191-1.84-0.0029-2.78-6.8e-4 -1.94 0.00116-3.89 0.00534-5.83 0.00534-2.97 5.37e-5 -5.94-0.00635-8.91 6.61e-4 -1.89 0.00194-3.77 0.00391-5.66-0.00202-0.889-0.00405-1.78-0.00613-2.69 0.00473-1.25 0.00473-1.25 0.00955-2.52 7.96e-4 -0.728 0.00159-1.46 0.00241-2.21 0.127-2.06 0.127-2.06 1.13-6.06h12c-0.00222-1.47-0.00444-2.95-0.00673-4.47-0.0202-13.9-0.0353-27.7-0.0451-41.6-0.00516-7.13-0.0122-14.3-0.0236-21.4-0.011-6.87-0.0168-13.7-0.0194-20.6-0.00185-2.63-0.00547-5.26-0.0109-7.88-0.00722-3.67-0.00826-7.34-0.0078-11-0.0036-1.1-0.00719-2.19-0.0109-3.32 0.00137-0.996 0.00275-1.99 0.00417-3.02-9.22e-4 -0.868-0.00184-1.74-0.00279-2.63 0.123-2.09 0.123-2.09 1.12-4.09-2.15 0.113-4.29 0.241-6.44 0.375-1.79 0.104-1.79 0.104-3.62 0.211-1.46 0.205-1.46 0.205-2.94 0.414-1.71 3.13-1.71 3.13-2 12h-47c-1.29-2.58-1.13-4.43-1.13-7.32-0.00315-1.11-0.0063-2.22-0.00955-3.37 0.00202-1.21 0.00405-2.41 0.00613-3.65-9.57e-4 -1.23-0.00191-2.47-0.0029-3.74-8.56e-4 -3.28 0.00318-6.56 0.00876-9.85 0.00195-2.01 9.03e-6 -4.02-0.00342-6.04-0.00617-3.86-0.00543-7.71-0.00244-11.6-0.00202-1.2-0.00405-2.41-0.00613-3.65 0.00315-1.11 0.0063-2.23 0.00955-3.38 7.96e-4 -0.982 0.00159-1.96 0.00241-2.98 0.127-2.47 0.127-2.47 1.13-5.47z" fill="#0014FB"/>
<path transform="translate(1375,203)" d="m0 0h67v39h-10c-0.197 2.52-0.383 5.04-0.562 7.56-0.0841 1.06-0.0841 1.06-0.17 2.13-0.0483 0.699-0.0967 1.4-0.146 2.12-0.0471 0.634-0.0943 1.27-0.143 1.92 0.0298 3.11 0.582 6.19 1.02 9.26 11.2 0.33 22.4 0.66 34 1-0.0395-7.15-0.0395-7.15-0.0901-14.3-0.0025-0.888-5e-3 -1.78-0.00757-2.69-0.00524-0.911-0.0105-1.82-0.0159-2.76 0.114-2.25 0.114-2.25 1.11-4.25h-10c-1.18-3.53-1.14-6.73-1.13-10.4-9.57e-4 -0.721-0.00191-1.44-0.0029-2.19-6.8e-4 -1.52 0.00116-3.05 0.00534-4.57 0.00535-2.33 4.84e-5 -4.66-0.00635-6.99 6.61e-4 -1.48 0.00194-2.96 0.00391-4.44-0.00202-0.697-0.00405-1.39-0.00613-2.11 0.0147-3.04 0.168-5.38 1.14-8.29h68c-0.33 12.9-0.66 25.7-1 39h-9c-0.927 9.81-1.15 19.6-1.13 29.4-6.76e-4 1.55-0.00165 3.09-0.0029 4.64-0.00146 3.22 6.31e-4 6.44 0.00534 9.66 0.00571 4.1 0.0024 8.19-0.00357 12.3-0.00364 3.19-0.00245 6.37 1.28e-4 9.56 6.6e-4 1.51-1.26e-4 3.02-0.00248 4.53-0.0102 8.36 0.225 16.6 1.14 24.9 3.3 0.33 6.6 0.66 10 1-0.33 12.9-0.66 25.7-1 39h-67c-1.18-3.55-1.13-6.4-1.13-10.2-9.57e-4 -0.697-0.00191-1.39-0.0029-2.11-6.8e-4 -1.47 0.00116-2.94 0.00534-4.42 0.00534-2.25 5.26e-5 -4.49-0.00635-6.74 6.61e-4 -1.43 0.00194-2.86 0.00391-4.29 0.00113-1.3 0.00226-2.6 0.00342-3.94 0.129-3.34 0.129-3.34 1.13-7.34h9c-0.00524-0.807-0.0105-1.61-0.0159-2.45-0.0207-3.64-0.0338-7.29-0.0466-10.9-0.00838-1.27-0.0168-2.54-0.0254-3.85-0.00322-1.21-0.00645-2.42-0.00977-3.67-0.00524-1.12-0.0105-2.24-0.0159-3.4 0.114-2.71 0.114-2.71 1.11-4.71h-35c-1.58 9.46-1.12 18.5 0 28 3.63 0.33 7.26 0.66 11 1-0.33 12.9-0.66 25.7-1 39h-67c-1.04-3.13-1.13-5.34-1.13-8.63-0.00129-1.12-0.00258-2.24-0.00391-3.39 0.00387-1.17 0.00773-2.34 0.0117-3.54-0.00387-1.14-0.00773-2.29-0.0117-3.46 0.0077-6.73 0.346-13.3 1.14-20h9c-0.00222-0.642-0.00444-1.28-0.00673-1.95-0.103-31.4-0.114-62.7 1.01-94.1h-10c-1.18-3.53-1.14-6.73-1.13-10.4-9.57e-4 -0.721-0.00191-1.44-0.0029-2.19-6.8e-4 -1.52 0.00116-3.05 0.00534-4.57 0.00535-2.33 4.84e-5 -4.66-0.00635-6.99 6.61e-4 -1.48 0.00194-2.96 0.00391-4.44-0.00202-0.697-0.00405-1.39-0.00613-2.11 0.0147-3.04 0.168-5.38 1.14-8.29zm66 138v7h1v-7h-1z" fill="#0014FA"/>
<path transform="translate(258,203)" d="m0 0h68c-0.33 12.9-0.66 25.7-1 39h-9c-0.116 11.8-0.205 23.6-0.259 35.4-0.0261 5.48-0.0615 11-0.118 16.4-0.0543 5.28-0.0842 10.6-0.0972 15.9-0.00925 2.02-0.0273 4.03-0.0543 6.05-0.0362 2.82-0.0413 5.64-0.039 8.47-0.027 1.25-0.027 1.25-0.0545 2.53 0.0354 3.97 0.214 5.83 2.97 8.79 3.21 1.79 5.28 1.98 8.94 1.98l3.6 0.00195c1.23-0.02 2.46-0.04 3.73-0.0605 1.24 0.00709 2.48 0.0142 3.76 0.0215 5.98 0.361 5.98 0.361 11.3-1.75 2.35-2.97 1.74-6.68 1.69-10.3 4.38e-4 -0.878 8.76e-4 -1.76 0.00133-2.66-0.00209-2.91-0.0254-5.81-0.0489-8.72-0.00559-2.01-0.00987-4.03-0.0129-6.04-0.0115-5.3-0.0409-10.6-0.0741-15.9-0.0307-5.41-0.0444-10.8-0.0595-16.2-0.0322-10.6-0.0834-21.2-0.146-31.8h2v-2h-10c-1.18-3.53-1.14-6.73-1.13-10.4-9.57e-4 -0.721-0.00191-1.44-0.0029-2.19-6.8e-4 -1.52 0.00116-3.05 0.00534-4.57 0.00535-2.33 4.84e-5 -4.66-0.00635-6.99 6.61e-4 -1.48 0.00194-2.96 0.00391-4.44-0.00202-0.697-0.00405-1.39-0.00613-2.11 0.0147-3.04 0.168-5.38 1.14-8.29h68c-0.33 12.9-0.66 25.7-1 39h-9c0.0327 1.31 0.0654 2.62 0.099 3.96 0.293 12.4 0.445 24.9 0.466 37.3 0.0148 6.4 0.0761 12.8 0.251 19.2 1.28 48.9 1.28 48.9-11.9 63.2-12 11.7-26.4 14.9-42.7 15-2.52-0.0348-5.03-0.108-7.54-0.194-4.23-0.143-8.41-0.0447-12.6 0.117-16 0.517-29.1-0.337-41.3-11.5-17.3-16.8-17.3-16.8-17.8-22.9-0.00775-0.764-0.0155-1.53-0.0235-2.31-0.0112-0.876-0.0225-1.75-0.034-2.66-0.00733-0.964-0.0147-1.93-0.0222-2.92-0.0115-1.01-0.023-2.03-0.0349-3.07-0.0368-3.36-0.0664-6.72-0.0955-10.1-0.0231-2.33-0.0465-4.65-0.0702-6.98-0.0485-4.88-0.0934-9.76-0.136-14.6-0.0549-6.27-0.119-12.5-0.185-18.8-0.05-4.8-0.0951-9.61-0.139-14.4-0.0216-2.31-0.0448-4.63-0.0695-6.94-0.0337-3.23-0.061-6.45-0.0865-9.68-0.0114-0.966-0.0227-1.93-0.0345-2.93-0.00559-0.874-0.0112-1.75-0.017-2.65-7e-3 -0.763-0.014-1.53-0.0212-2.31 0.11-1.74 0.11-1.74 1.11-2.74-3.3-0.33-6.6-0.66-10-1-1.18-3.53-1.14-6.73-1.13-10.4-9.57e-4 -0.721-0.00191-1.44-0.0029-2.19-6.8e-4 -1.52 0.00116-3.05 0.00534-4.57 0.00535-2.33 4.84e-5 -4.66-0.00635-6.99 6.61e-4 -1.48 0.00194-2.96 0.00391-4.44-0.00202-0.697-0.00405-1.39-0.00613-2.11 0.0147-3.04 0.168-5.38 1.14-8.29z" fill="#FAFBFD"/>
<path transform="translate(805 200)" d="m0 0c4.18 0.149 8.31 0.0606 12.5-0.0897 15.5-0.472 28.6 0.252 40.5 11.1 16.8 16.2 16.8 16.2 17.3 27.2 0.0389 0.961 0.0779 1.92 0.118 2.91 0.0559 1.57 0.0559 1.57 0.113 3.18 0.0629 1.66 0.0629 1.66 0.127 3.36 0.37 10.3 0.598 20.6 0.776 30.9 0.122 6.91 0.293 13.8 0.587 20.7 2.13 51.2 2.13 51.2-9.49 65.4-10.6 11.4-24.1 15.7-39.3 16.4-4.16 0.0869-8.31 0.0169-12.5-0.114-3.37-0.105-6.7-0.085-10.1 0.0615-18 0.779-34.3-0.899-48.5-12.9-12.3-11.3-16-23.4-16.9-39.8-0.357-11.5 0.0615-22.9 0.606-34.4 0.279-6.63 0.37-13.3 0.486-19.9 0.205-9.66 0.453-19.3 0.879-29 0.0348-1 0.0695-2 0.105-3.04 0.249-4.99 0.517-8.48 3.7-12.5 0.701-0.958 1.4-1.92 2.12-2.9 16.4-20.9 30.5-27.4 56.9-26.5zm-14 48.4c-1.22 3.67-1.13 7.05-1.11 10.9-1.46e-4 0.8-2.92e-4 1.6-4.43e-4 2.42 6.97e-4 2.65 0.00848 5.29 0.0163 7.94 0.00186 1.83 0.00329 3.67 0.00429 5.5 0.00382 4.83 0.0136 9.66 0.0247 14.5 0.0102 4.93 0.0148 9.85 0.0198 14.8 0.0107 9.67 0.0278 19.3 0.0488 29 0.631 0.297 1.26 0.594 1.91 0.9 2.09 1.1 2.09 1.1 3.47 2.7 3.62 3.14 10 1.87 14.6 1.84 1.19 0.02 2.39 0.04 3.62 0.0605 1.72-9.67e-4 1.72-9.67e-4 3.47-0.00195 1.57 0.00278 1.57 0.00278 3.18 0.00562 3.64-0.654 4.58-1.55 6.79-4.5 0.428-2.91 0.615-5.45 0.625-8.36 0.0184-0.841 0.0367-1.68 0.0557-2.55 0.055-2.78 0.0808-5.56 0.104-8.34 0.0277-1.93 0.0564-3.87 0.086-5.8 0.0574-4.05 0.0999-8.1 0.132-12.2 0.0433-5.19 0.127-10.4 0.223-15.6 0.0685-3.99 0.113-7.98 0.151-12 0.0214-1.91 0.0506-3.83 0.0878-5.74 0.0488-2.68 0.0653-5.35 0.0736-8.03 0.021-0.789 0.0421-1.58 0.0638-2.39-0.0234-4.04-0.425-5.87-2.96-9.09-4.72-3.59-9.86-2.77-15.6-2.7-1.17-0.0277-2.33-0.0554-3.54-0.084-7.46 0.0213-11.1 0.576-15.5 6.77zm37 0v84h1v-84h-1z" fill="#F9FAFC"/>
<path transform="translate(1086,203)" d="m0 0c2.23-0.369 2.23-0.369 5.06-0.361 1.07-0.00412 2.14-0.00825 3.25-0.0125 1.18 0.0108 2.36 0.0216 3.58 0.0327 1.24-4.38e-4 2.48-8.76e-4 3.75-0.00133 3.4 0.00174 6.81 0.0168 10.2 0.0377 3.55 0.0187 7.11 0.0205 10.7 0.0241 6.73 0.00933 13.5 0.034 20.2 0.064 7.66 0.0335 15.3 0.05 23 0.0651 15.8 0.0314 31.5 0.0864 47.3 0.151-0.33 15.2-0.66 30.4-1 46h-38c-1-5-1-5 0-7h-31v27c2.31 0.33 4.62 0.66 7 1 0.33-2.31 0.66-4.62 1-7h38c-0.33 17.8-0.66 35.6-1 54h-37c-1-5-1-5 0-7h-8c-1.7 8.93-1.49 18.1 0 27 9.9 0.33 19.8 0.66 30 1 0.33-2.31 0.66-4.62 1-7h39c-0.33 15.2-0.66 30.4-1 46h-127c-1.18-3.55-1.13-6.4-1.13-10.2-9.57e-4 -0.697-0.00191-1.39-0.0029-2.11-6.8e-4 -1.47 0.00116-2.94 0.00534-4.42 0.00534-2.25 5.26e-5 -4.49-0.00635-6.74 6.61e-4 -1.43 0.00194-2.86 0.00391-4.29 0.00113-1.3 0.00226-2.6 0.00342-3.94 0.129-3.34 0.129-3.34 1.13-7.34h10c-0.00222-1.17-0.00444-2.35-0.00673-3.56-0.0202-11-0.0352-22.1-0.0451-33.1-0.00523-5.67-0.0123-11.3-0.0236-17-0.0108-5.47-0.0168-10.9-0.0194-16.4-0.00185-2.09-0.00547-4.18-0.0109-6.27-0.00722-2.92-0.00826-5.84-0.0078-8.76-0.0036-0.872-0.00719-1.74-0.0109-2.64 0.0104-5.99 0.0104-5.99 1.12-8.21h-11c-1.18-3.53-1.16-6.73-1.17-10.4-0.00333-0.721-0.00666-1.44-0.0101-2.19-0.00506-1.52-0.00741-3.05-0.00725-4.57-0.00219-2.33-0.0204-4.66-0.0393-6.99-0.00293-1.48-0.00492-2.96-0.00586-4.44-0.00719-0.697-0.0144-1.39-0.0218-2.11 0.0173-3.66 0.161-5.16 2.25-8.29z" fill="#0014FA"/>
<path transform="translate(423,203)" d="m0 0h130c-1.15 40.2-1.15 40.2-14.2 57.1-1.33 1.85-2.65 3.7-3.97 5.56-2.64 3.71-5.31 7.4-8.02 11.1-3.57 4.86-6.95 9.82-10.3 14.9-0.491 0.749-0.982 1.5-1.49 2.27-0.951 1.45-1.9 2.91-2.85 4.36-5.94 9.1-12.1 18-18.5 26.7-3.13 4.21-6.01 8.5-8.69 13h2c0.33-0.66 0.66-1.32 1-2v2h25c0.33-3.3 0.66-6.6 1-10h39c-0.33 16.2-0.66 32.3-1 49h-129c-1.78-5.34-1.31-11-1.38-16.6-0.0374-1.25-0.0748-2.49-0.113-3.78-0.0174-1.83-0.0174-1.83-0.0352-3.7-0.0198-1.11-0.0396-2.21-0.0601-3.35 1.35-8.22 7.27-15.3 11.9-22 0.597-0.88 1.19-1.76 1.81-2.67 1.27-1.87 2.53-3.74 3.8-5.6 3.29-4.83 6.56-9.67 9.84-14.5 0.638-0.942 1.28-1.88 1.93-2.86 4.77-7.06 9.49-14.2 14.1-21.3 0.577-0.891 1.15-1.78 1.75-2.7 1.03-1.59 2.06-3.19 3.09-4.78 5.23-8.1 10.7-16 16.6-23.6 1.93-2.44 1.93-2.44 2.79-5.5h2v-2h-29c-0.33 3.63-0.66 7.26-1 11h-38c-0.928-2.78-1.13-4.46-1.13-7.33-0.00315-0.871-0.0063-1.74-0.00955-2.64 0.00202-0.938 0.00405-1.88 0.00613-2.84-9.57e-4 -0.965-0.00191-1.93-0.0029-2.93-6.81e-4 -2.04 0.00116-4.08 0.00534-6.12 0.00535-3.13 5.07e-5 -6.25-0.00635-9.38 6.61e-4 -1.98 0.00194-3.96 0.00391-5.95-0.00202-0.938-0.00405-1.88-0.00613-2.84 0.00473-1.31 0.00473-1.31 0.00955-2.64 7.96e-4 -0.766 0.00159-1.53 0.00241-2.32 0.127-2.01 0.127-2.01 1.13-5.01z" fill="#F7F8FA"/>
<path transform="translate(1263 203)" d="m0 0c0.711-0.0307 1.42-0.0613 2.15-0.0929 6.61-0.27 13.2-0.431 19.9-0.559 4.44-0.0874 8.87-0.21 13.3-0.422 30.9-1.44 30.9-1.44 40.5 5.74 4.76 4.35 9.09 9.14 12.3 14.8v2c0.598 0.248 1.2 0.495 1.81 0.75 3.06 1.75 4.74 3.76 5.76 7.15 0.693 3.43 0.546 6.89 0.523 10.4-0.00101 0.704-0.00201 1.41-0.00305 2.13-0.00521 2.62-0.0192 5.23-0.0321 7.85-0.0206 5.86-0.0412 11.7-0.0625 17.8h-47c-0.97-2.91-1.07-4.52-0.957-7.53 0.0213-0.875 0.0425-1.75 0.0645-2.65 0.0533-1.84 0.118-3.67 0.195-5.51 0.0174-0.876 0.0348-1.75 0.0527-2.65 0.041-1.2 0.041-1.2 0.0828-2.42-0.625-3.2-1.85-4.32-4.44-6.24-2.81-0.612-2.81-0.612-5.9-0.531-1.71-0.00773-1.71-0.00773-3.45-0.0156-1.18 0.0155-2.37 0.0309-3.59 0.0469-1.18-0.0155-2.36-0.0309-3.58-0.0469-1.14 0.00516-2.28 0.0103-3.45 0.0156-1.04 0.00451-2.08 0.00902-3.14 0.0137-3.6 0.644-5.28 2.02-7.89 4.52-1.57 3.14-1.18 6.49-1.21 9.94-0.0099 0.82-0.0198 1.64-0.03 2.48-0.0317 2.72-0.0564 5.43-0.0811 8.15-0.0206 1.88-0.0416 3.76-0.063 5.64-0.0553 4.95-0.105 9.91-0.153 14.9-0.0502 5.05-0.106 10.1-0.161 15.2-0.108 9.92-0.209 19.8-0.307 29.8 0.619 0.289 1.24 0.578 1.88 0.875 2.12 1.12 2.12 1.12 4.12 3.12 4.46 0.461 8.95 0.324 13.4 0.312 1.25 0.0161 2.51 0.0322 3.8 0.0488 1.2 6.45e-4 2.4 0.00129 3.63 0.00195 1.1 0.00298 2.21 0.00596 3.34 0.00903 2.77-0.159 2.77-0.159 4.64-1.63 1.41-2.15 1.56-3.49 1.62-6.06 0.0309-0.83 0.0619-1.66 0.0938-2.51 0.018-0.863 0.0361-1.73 0.0547-2.62 0.0512-1.71 0.106-3.41 0.164-5.12 0.0263-1.13 0.0263-1.13 0.0532-2.29 0.158-2.15 0.158-2.15 1.16-6.15h48c0.206 6.06 0.412 12.1 0.625 18.4 0.132 1.85 0.265 3.7 0.401 5.61 0.264 12.5-5.48 21.3-13.8 30.2-11.3 11.6-22.6 15.2-38.6 15.5-3.35 0.00976-6.68-0.0671-10-0.182-4.23-0.143-8.41-0.0447-12.6 0.117-16 0.517-29.1-0.337-41.3-11.5-17.4-16.8-17.4-16.8-17.8-23.1-0.00817-0.843-0.0163-1.69-0.0248-2.56-0.0115-0.967-0.023-1.93-0.0348-2.93-0.0074-1.06-0.0148-2.13-0.0224-3.23-0.0114-1.12-0.0228-2.24-0.0345-3.39-0.0976-10.3-0.149-20.7-0.186-31-0.0275-7.63-0.0782-15.3-0.16-22.9-0.0626-6.02-0.0868-12-0.0978-18.1-0.0104-2.56-0.0328-5.11-0.0676-7.67-0.0462-3.58-0.0482-7.16-0.0399-10.7-0.0236-1.05-0.0472-2.11-0.0715-3.19 0.0746-6.63 1.39-10 6.13-14.7 0.58-0.532 1.16-1.06 1.76-1.61 0.858-0.9 1.72-1.8 2.6-2.73 0.789-0.79 1.58-1.58 2.39-2.39 0.871-0.872 1.74-1.74 2.64-2.64 0.886-0.882 1.77-1.76 2.69-2.67 0.906-0.909 1.81-1.82 2.74-2.76 0.864-0.863 1.73-1.73 2.62-2.62 0.783-0.782 1.57-1.56 2.37-2.37 3.49-3.25 6.16-3.04 10.9-3.24z" fill="#0014FA"/>
<path transform="translate(668,291)" d="m0 0c5.75 4.73 10.8 9.89 15.9 15.3 1.73 1.8 3.47 3.6 5.21 5.4 2.71 2.81 5.42 5.62 8.09 8.47 2.6 2.76 5.24 5.48 7.89 8.2 0.781 0.851 1.56 1.7 2.37 2.58 5.9 5.93 10.5 7.04 18.8 7.14 0.896-0.028 1.79-0.056 2.72-0.0849-0.33 0.99-0.66 1.98-1 3-11.9-0.192-11.9-0.192-16-3.25-0.66-0.908-1.32-1.82-2-2.75-0.784-0.784-1.57-1.57-2.38-2.38-1.42-1.42-2.84-2.85-4.25-4.29-3.44-3.5-6.98-6.77-10.7-9.93-2.34-2.02-4.48-4.2-6.63-6.41-0.598-0.557-1.2-1.11-1.81-1.69-1.19-1.31-1.19-1.31-1.19-3.31-0.639-0.268-1.28-0.536-1.94-0.812-2.06-1.19-2.06-1.19-3.06-4.19l-2-1c-2-1-2-1-3-4-0.66-0.309-1.32-0.619-2-0.938-0.66-0.351-1.32-0.701-2-1.06-0.625-2.07-0.625-2.07-1-4z" fill="#000002"/>
<path transform="translate(1151,263)" d="m0 0h38c-0.33 0.99-0.66 1.98-1 3-1.47-0.00786-1.47-0.00786-2.97-0.0159-3.64-0.0181-7.28-0.0296-10.9-0.0391-1.57-0.00502-3.15-0.0118-4.72-0.0205-2.26-0.0122-4.53-0.0178-6.79-0.0222-1.05-0.00774-1.05-0.00774-2.12-0.0156-3.31-3.79e-4 -6.32 0.0881-9.48 1.11v-4z" fill="#000002"/>
<path transform="translate(742,236)" d="m0 0h1v86h-1v-86z" fill="#FCFDFF"/>
<path transform="translate(1174,331)" d="m0 0h39c-0.33 0.99-0.66 1.98-1 3-1.46-0.00786-1.46-0.00786-2.95-0.0159-3.62-0.0182-7.25-0.0296-10.9-0.0391-1.57-0.00502-3.13-0.0118-4.7-0.0205-2.26-0.0122-4.51-0.0178-6.77-0.0222-0.696-0.00516-1.39-0.0103-2.11-0.0156-3.66-4.19e-4 -7.04 0.242-10.6 1.11v-4z" fill="#000002"/>
<path transform="translate(316,333)" d="m0 0c0.696 0.65 1.39 1.3 2.11 1.97 3.39 2.38 5.05 2.53 9.14 2.53 1.78 9.67e-4 1.78 9.67e-4 3.59 0.00195 1.23-0.02 2.46-0.04 3.72-0.0605 1.85 0.0106 1.85 0.0106 3.73 0.0215 7.49 0.197 7.49 0.197 13.7-3.46-1.75 4.88-1.75 4.88-4 6-22.9 2.43-22.9 2.43-29-1.18-1.68-1.38-1.68-1.38-4-3.82 0.33-0.66 0.66-1.32 1-2z" fill="#000002"/>
<path transform="translate(1274,333)" d="m0 0c2.47 1.15 4.05 2.05 6 4 4.44 0.462 8.91 0.324 13.4 0.312 1.25 0.0161 2.49 0.0322 3.77 0.0488 1.79 9.67e-4 1.79 9.67e-4 3.62 0.00195 1.1 0.00298 2.19 0.00596 3.33 0.00903 3.19-0.41 4.56-1.22 6.9-3.37-0.312 1.88-0.312 1.88-1 4-4.95 3.3-10.6 2.37-16.4 2.38-1.23 0.0245-2.46 0.049-3.73 0.0742-1.19 0.00387-2.38 0.00773-3.6 0.0117-1.63 0.0123-1.63 0.0123-3.29 0.0249-3.71-0.601-5.36-1.86-8-4.49-0.33-0.99-0.66-1.98-1-3z" fill="#000002"/>
<path transform="translate(791,332)" d="m0 0c0.719 0.815 1.44 1.63 2.18 2.47 4.89 4.06 10.9 3.18 16.9 3.03 1.77 0.00387 1.77 0.00387 3.57 0.00781 7.27 0.108 7.27 0.108 13.3-3.51-0.312 1.88-0.312 1.88-1 4-4.84 3.23-10.1 2.41-15.8 2.44-1.76 0.0493-1.76 0.0493-3.56 0.0996-9.69 0.0603-9.69 0.0603-13.4-2.88-2.18-2.66-2.18-2.66-2.18-5.66z" fill="#000002"/>
<path transform="translate(487,336)" d="m0 0c0.33 0.66 0.66 1.32 1 2h25v2h-27c0.33-1.32 0.66-2.64 1-4z" fill="#000002"/>
<path transform="translate(400,293)" d="m0 0h1v56h-1v-56z" fill="#000002"/>
<path transform="translate(1012,238)" d="m0 0h1v52h-1v-52z" fill="#000002"/>
<path transform="translate(1383,244)" d="m0 0h1v36h-1v-36z" fill="#0015FE"/>
<path transform="translate(1431,337)" d="m0 0c3.96 0.33 7.92 0.66 12 1v10h-1v-7c-3.3-0.33-6.6-0.66-10-1-0.33-0.99-0.66-1.98-1-3z" fill="#000002"/>
<path transform="translate(231,328)" d="m0 0h13v6c-0.33-0.99-0.66-1.98-1-3-3.96-0.33-7.92-0.66-12-1v-2z" fill="#000002"/>
<path transform="translate(625,337)" d="m0 0c3.63 0.33 7.26 0.66 11 1v3c-7.43 0.286-7.43 0.286-11-2v-2z" fill="#000002"/>
<path transform="translate(1359,329)" d="m0 0h1v20h-1v-20z" fill="#000002"/>
<path transform="translate(1514,306)" d="m0 0h1v20h-1v-20z" fill="#000002"/>
<path transform="translate(1142,317)" d="m0 0h1v14h-1v-14z" fill="#000002"/>
<path transform="translate(1431,315)" d="m0 0h1v12h-1v-12z" fill="#000002"/>
<path transform="translate(1514,272)" d="m0 0h1v10h-1v-10z" fill="#000002"/>
<path transform="translate(133,305)" d="m0 0h1v9h-1v-9z" fill="#000002"/>
<path transform="translate(875,299)" d="m0 0h1v7h-1v-7z" fill="#000002"/>
<path transform="translate(1431,251)" d="m0 0h1v7h-1v-7z" fill="#000002"/>
<path transform="translate(1358,230)" d="m0 0 2 1c-0.33 0.99-0.66 1.98-1 3-0.33-1.32-0.66-2.64-1-4z" fill="#000002"/>
<path transform="translate(1514,251)" d="m0 0 1 4z" fill="#000002"/>
<path transform="translate(728,220)" d="m0 0 1 4z" fill="#000002"/>
<path transform="translate(487,243)" d="m0 0 2 1z" fill="#FCFDFF"/>
</svg>
